<svg xmlns="http://www.w3.org/2000/svg" width="360" height="66" style="shape-rendering:geometricPrecision;text-rendering:geometricPrecision;image-rendering:optimizeQuality;fill-rule:evenodd;clip-rule:evenodd" viewBox="0 0 360 66"><path style="opacity:1" fill="#474f52" d="M38.5 28.5v-10q1.142-1.336 3-2a21.1 21.1 0 0 0 1-9h14v10q-7.692-.584-15 1.5-2.278 4.576-3 9.5"/><path style="opacity:1" fill="#d5f9fa" d="M44.5 9.5q1.314-.196 2 1a28 28 0 0 0-1.5 5 18.4 18.4 0 0 1-.5-6"/><path style="opacity:1" fill="#404a4e" d="M21.5 16.5q0 1-1 1h-13q-.426-4.915 1-9.5a85 85 0 0 1 13-.5z"/><path style="opacity:1" fill="#d5f9fa" d="M9.5 9.5q1.314-.196 2 1a28 28 0 0 0-1.5 5 18.4 18.4 0 0 1-.5-6"/><path style="opacity:1" fill="#859da4" d="M17.5 9.5q1.79.705 2 3l-.5 3q-2.478-1.075-4.5-1 1.237-1.329 3-1z"/><path style="opacity:1" fill="#c1c1c1" d="M25.5 12.5h6v6h-1v-5q-2.872.426-5-1"/><path style="opacity:1" fill="#acacac" d="M38.5 12.5q-2.128 1.426-5 1v5h5v1h-6v-7z"/><path style="opacity:1" fill="#86889e" d="M157.5 28.5v2q-1.481-7.207-1-15-4.332-.765-7 2-1.356-1.063-1-3h9z"/><path style="opacity:1" fill="#000002" d="M157.5 30.5q1 0 1 1-.925.165-1.5 1a129 129 0 0 0-.5 16q2.975-.514 4 2h-11q1.025-2.514 4-2 .492-15.77-1-31h-3q2.668-2.765 7-2-.481 7.793 1 15"/><path style="opacity:1" fill="#1b181e" d="M330.5 15.5q1.83 2.675 0 5 0-2-2-2a5.73 5.73 0 0 1-3-1q-1.494-.128-2.5 1-1.201 4.3.5 8h5q-2.127 2.712-6 2v20q3.422-.634 5 2h-13q1.025-2.514 4-2v-20q-2.975.515-4-2h3q-.452-3.84 1-7 2.5-1.5 4-4 3.944-1.821 8 0"/><path style="opacity:1" fill="#130d10" d="M75.5 16.5q10.512-.25 21 .5 2.163.565 3 2.5-.11 2.29 2 3a41.7 41.7 0 0 1-1 9q-1.264 2.51-4 3.5a72.4 72.4 0 0 1-12 .5q-1.477 6.201-1 13 3.422-.634 5 2h-13q1.025-2.514 4-2v-30q-2.975.515-4-2m17 3q.513 1.258 2 1 2 5.5 0 11-1.487-.258-2 1h-8v-13z"/><path style="opacity:1" fill="#1d1921" d="M209.5 19.5q-1.49 14.228-1 29 2.975-.514 4 2h-13q1.578-2.634 5-2 .49-14.772-1-29h-9v5h-4v-8h31v8h-4v-5z"/><path style="opacity:1" fill="#323643" d="M307.5 20.5h-4v-4q3.731-2.126 5 2.5-.105 1.148-1 1.5"/><path style="opacity:1" fill="#b47d50" d="M322.5 15.5q-1.5 2.5-4 4 .5-3.5 4-4"/><path style="opacity:1" fill="#7587b6" d="M330.5 15.5q1.494-.129 2.5 1 .74 2.45.5 5h-3v-1q1.83-2.325 0-5"/><path style="opacity:1" fill="#747474" d="M21.5 16.5q4.212 2.144 9 2h1q-2.648 1.442-6 1v9q-1.225-3.703-1.5-8a30 30 0 0 0-3.5-3q1 0 1-1"/><path style="opacity:1" fill="#af5f20" d="M152.5 17.5q1.492 15.23 1 31-2.975-.514-4 2-1.356-1.064-1-3h4z"/><path style="opacity:1" fill="#ad8164" d="M303.5 16.5v4h4q-2.17 1.67-5 .5-2.124-2.872 1-4.5"/><path style="opacity:1" fill="#b47647" d="M134.5 18.5q.804 4.797-2 8-.804-4.797 2-8"/><path style="opacity:1" fill="#181a21" d="M134.5 18.5h4v8h7q-3.203 2.804-8 2-.485 9.783 1 19 1.337.915 3 1 2.919-.802 3-4h3q-.029 7.275-7.5 7-2.077-.021-3.5-1-.424-1.184-1.5-2a197 197 0 0 0-1.5-20q-2.519.322-3-2h2q2.804-3.203 2-8"/><path style="opacity:1" fill="#b57c4c" d="M328.5 18.5q2 0 2 2v1q-1.352-1.185-2-3"/><path style="opacity:1" fill="#3b3a39" d="M38.5 12.5h-6v7h6v9h-6v15h10q2.2 1.27 2.5 4 6.155 18.835-13 15L20.5 62 19 60.5q-1.228-8.773.5-17h1q3.672-1.46 8-1 2.712-2.127 2-6l1-2v-6h-6v-9q3.352.442 6-1v-6h-6q-1.707-4.206-.5-9 7-2 14 0 1.206 4.794-.5 9"/><path style="opacity:1" fill="#768d95" d="M26.5 4.5h11v7h-11z"/><path style="opacity:1" fill="#e2b675" d="M75.5 16.5q1.025 2.515 4 2v30q-2.975-.514-4 2-1.356-1.064-1-3h4v-28h-4q-.356-1.937 1-3"/><path style="opacity:1" fill="#6d8db5" d="M92.5 19.5h-8v13h8q-4.18 1.465-9 1v-15q4.82-.465 9 1"/><path style="opacity:1" fill="#beebed" d="M209.5 19.5v28h4q.356 1.936-1 3-1.025-2.514-4-2-.49-14.772 1-29"/><path style="opacity:1" fill="#4b7cbc" d="M99.5 19.5q2.11.71 2 3-2.11-.71-2-3"/><path style="opacity:1" fill="#99b7c2" d="M37.5 26.5q-5.5-2-11 0v-6h11z"/><path style="opacity:1" fill="#394448" d="M29.5 21.5h6v3a13.1 13.1 0 0 1-7-1q.544-1.025 1-2"/><path style="opacity:1" fill="#bfe2f0" d="M325.5 17.5q-2.652 3.995-2 9-1.701-3.7-.5-8 1.006-1.128 2.5-1"/><path style="opacity:1" fill="#75b7e9" d="M101.5 22.5q.979 1.423 1 3.5.16 3.33-2 5.5a41.7 41.7 0 0 0 1-9"/><path style="opacity:1" fill="#5c6f75" d="M37.5 26.5q-5.5 2-11 0 5.5-2 11 0"/><path style="opacity:1" fill="#ecc988" d="M94.5 20.5q.925.165 1.5 1 1 4.5 0 9-.575.835-1.5 1 2-5.5 0-11"/><path style="opacity:1" fill="#282122" d="M120.5 27.5q-.059 1.884 1.5 3 .26 8.772 1.5 17 2.578.783 4 3h-8q-.685-3.085-3 0-6.3 2.605-11-2-2-5.5 0-11 2.29.11 3-2h11q.426-2.872-1-5a16.5 16.5 0 0 0-5-2 109 109 0 0 1-9 4q-.855-5.882 5-6.5 5.966-1.32 11 1.5m-2 10a32.5 32.5 0 0 1-.5 8 30 30 0 0 1-3.5 3 16.3 16.3 0 0 1-5-2q-2-3.5 0-7 4.204-2.142 9-2"/><path style="opacity:1" fill="#231916" d="M168.5 26.5a33 33 0 0 1 2.5 6q.749 7.984.5 16 2.975-.514 4 2h-11q.481-2.322 3-2 .249-9.015-.5-18-1.006-1.128-2.5-1-3.305.155-6 2 0-1-1-1v-2q4.892-4.398 11-2"/><path style="opacity:1" fill="#0f0c17" d="M223.5 26.5h8q-.356 1.937 1 3l-1 4v15q2.975-.514 4 2h-12q1.025-2.514 4-2v-20q-2.975.515-4-2"/><path style="opacity:1" fill="#e6e9d0" d="m231.5 26.5 2 1v1q-1 0-1 1-1.356-1.063-1-3"/><path style="opacity:1" fill="#3c3a41" d="M243.5 32.5a12.1 12.1 0 0 1-4-3h-4l-2-1v-1q.626-1.083 2-1.5a16.25 16.25 0 0 1 8 0q1.966 3.41 0 6.5"/><path style="opacity:1" fill="#29272c" d="M266.5 30.5q.444 2.855 2 5 1.356 1.064 1 3h-18q-.435 11.346 10 8.5 2.305-1.665 2-4.5h4a20.7 20.7 0 0 0-1 5q-5.95 5.877-14 3-1.144-2.643-4-3-5.393-12.037 4-21 6.795-2.34 13 1.5 1.129 1.006 1 2.5m-6-1q1.845 2.695 2 6-6.224.87-11-2 1.76-1.52 2-4 3.5-2 7 0"/><path style="opacity:1" fill="#232226" d="M289.5 26.5q1.927 2.927 5 5a52 52 0 0 0 1 7h-17q-.44 11.076 10 9l6-4-1 4q-1.429 3.165-5 3.5a16.25 16.25 0 0 1-8 0q-1.374-.417-2-1.5-1.5-2.5-4-4a55 55 0 0 1-1-12q-.258-1.487 1-2 2.5-1.5 4-4 5.105-3.322 11-1m-3 2q3.525 2.57 3 7a61 61 0 0 1-11-.5q1.255-1.517 1-3.5 2.57-3.525 7-3"/><path style="opacity:1" fill="#1c0a06" d="M299.5 26.5h8v22q2.975-.514 4 2h-12q1.025-2.514 4-2v-20q-2.975.515-4-2"/><path style="opacity:1" fill="#6eb5e5" d="M307.5 26.5q1.487 10.22 1 21h4q.356 1.936-1 3-1.025-2.514-4-2z"/><path style="opacity:1" fill="#1d181d" d="M329.5 26.5h11q-.482 2.322-3 2-.356 1.937 1 3v1q-.501 4.486 3 7 1.356 1.064 1 3 .309 3.075 2.5 1a357 357 0 0 1 5.5-14q-2.748-.835-4-3h9q-.907 2.289-3.5 3a487 487 0 0 0-10.5 28q-.111 2.866-3 3.5-8.53 3.056-8-5.5 3.865-.067 6 3 4.188-1.338 4-6 .895-.352 1-1.5a208 208 0 0 0-9-21.5q-2.1-.9-3-3"/><path style="opacity:1" fill="#494e50" d="M29.5 33.5q.512 1.258 2 1l-1 2a32.5 32.5 0 0 0-7-3q-.512-1.258-2-1 0-1-1-1-1.142-1.336-3-2-6.415 1.658-13 .5-1.435-5.091-1-10.5h14q-.245 3.535.5 7a208 208 0 0 0 11.5 7"/><path style="opacity:1" fill="#89a3a8" d="M14.5 21.5q1.452 3.16 1 7a32.4 32.4 0 0 1-8-.5q2.341-.476 3.5-2.5 1.065 2.21 3.5 2z"/><path style="opacity:1" fill="#d3f9fa" d="M5.5 21.5q1.314-.195 2 1a28 28 0 0 0-1.5 5 18.4 18.4 0 0 1-.5-6"/><path style="opacity:1" fill="#4d5152" d="M43.5 31.5q-2 .5 0 1l-1 2q-9.657-1.91-9 8 4.82-.465 9 1h-10v-9q1.487.258 2-1a8480 8480 0 0 1 12-7 13.1 13.1 0 0 0 1-7h14q.434 5.409-1 10.5-6 1-12 0L47 28.5a30 30 0 0 1-3.5 3"/><path style="opacity:1" fill="#98b4b9" d="M49.5 21.5q1.314-.195 2 1a9.1 9.1 0 0 0-1 5q2.927.41 4.5-2 1.064 2.21 3.5 2a18.4 18.4 0 0 1 .5-6q.745 3.465.5 7h-10z"/><path style="opacity:1" fill="#506c92" d="M289.5 26.5q4.034 1.035 5 5-3.073-2.073-5-5"/><path style="opacity:1" fill="#7a98bc" d="M145.5 26.5q1.356 1.063 1 3h-8v18q-1.485-9.217-1-19 4.797.804 8-2"/><path style="opacity:1" fill="#57637c" d="m233.5 28.5 2 1-3 4h-1l1-4q0-1 1-1"/><path style="opacity:1" fill="#ae7d4f" d="M286.5 28.5q6.104 2.205 4 8 0-1-1-1 .525-4.43-3-7"/><path style="opacity:1" fill="#97b3c0" d="M340.5 26.5q1.356 1.063 1 3-2.518-.322-3 2-1.356-1.063-1-3 2.518.322 3-2"/><path style="opacity:1" fill="#6f98c9" d="M355.5 26.5q1.356 1.063 1 3-1.983-.255-3.5 1a245 245 0 0 1-11.5 27 487 487 0 0 1 10.5-28q2.593-.711 3.5-3"/><path style="opacity:1" fill="#c5c5c5" d="M38.5 28.5q-2.128 1.427-5 1-.401 2.398 1 4-.513 1.258-2 1v-6z"/><path style="opacity:1" fill="#ebe3c4" d="M130.5 26.5q.481 2.322 3 2v17q-1.482-7.71-1-16h-3q-.356-1.937 1-3"/><path style="opacity:1" fill="#d19354" d="M223.5 26.5q1.025 2.515 4 2v20q-2.975-.514-4 2-1.356-1.064-1-3h4v-18h-4q-.356-1.937 1-3"/><path style="opacity:1" fill="#b57e4d" d="M278.5 27.5q-1.5 2.5-4 4 .5-3.5 4-4"/><path style="opacity:1" fill="#e0deb4" d="M299.5 26.5q1.025 2.515 4 2v20q-2.975-.514-4 2-1.356-1.064-1-3h4v-18h-4q-.356-1.937 1-3"/><path style="opacity:1" fill="#d19256" d="M314.5 26.5q1.025 2.515 4 2v20q-2.975-.514-4 2-1.356-1.064-1-3h4v-18h-4q-.356-1.937 1-3"/><path style="opacity:1" fill="#bed2d3" d="M328.5 26.5h1q.9 2.1 3 3v1q-4.337-1.354-9-1v18h5q.356 1.936-1 3-1.578-2.634-5-2v-20q3.873.712 6-2"/><path style="opacity:1" fill="#cbcbcb" d="M25.5 28.5h6v6q-1.488.258-2-1 1.402-1.602 1-4-2.872.427-5-1"/><path style="opacity:1" fill="#dba77c" d="M239.5 29.5a12.1 12.1 0 0 0 4 3q-3.69 1.701-4-3"/><path style="opacity:1" fill="#98c7e9" d="M253.5 29.5q-.24 2.48-2 4-.406-2.82 2-4"/><path style="opacity:1" fill="#dfb680" d="M260.5 29.5q3.703 1.66 3 6h-1q-.155-3.305-2-6"/><path style="opacity:1" fill="#373a3a" d="M43.5 32.5h13v9q-6.22 1.72-13 .5-1.402-3.57-1-7.5z"/><path style="opacity:1" fill="#a4a4a4" d="M43.5 32.5v-1h14q.47 5.313-1 10v-9z"/><path style="opacity:1" fill="#7aafde" d="M266.5 30.5q2.57 1.703 2 5-1.556-2.145-2-5"/><path style="opacity:1" fill="#c49568" d="M346.5 26.5q1.252 2.165 4 3a357 357 0 0 0-5.5 14q-2.191 2.075-2.5-1 4.683-5.467 6-13h-3q-.356-1.937 1-3"/><path style="opacity:1" fill="#aaa18e" d="M118.5 30.5q1.426 2.128 1 5h-10q4.18-1.465 9-1z"/><path style="opacity:1" fill="#859fa7" d="M55.5 39.5q-5.5-2-11 0v-6q2.948.944 6 2 2.316-.434 4-2a9.86 9.86 0 0 1 1 6"/><path style="opacity:1" fill="#5f98d4" d="M84.5 35.5v12h5q.356 1.936-1 3-1.578-2.634-5-2-.477-6.799 1-13"/><path style="opacity:1" fill="#071538" d="M120.5 27.5q2.643 1.143 3 4v16q-1.24-8.228-1.5-17-1.559-1.116-1.5-3"/><path style="opacity:1" fill="#86c4e9" d="M123.5 31.5q1.482 7.71 1 16h4q.356 1.936-1 3-1.422-2.217-4-3z"/><path style="opacity:1" fill="#5490c9" d="M168.5 26.5q2.51 1.264 3.5 4a145 145 0 0 1 .5 17h4q.356 1.936-1 3-1.025-2.514-4-2a129 129 0 0 0-.5-16 33 33 0 0 0-2.5-6"/><path style="opacity:1" fill="#878f96" d="M251.5 33.5q4.776 2.87 11 2h1q-6.202 1.477-13 1-.356-1.936 1-3"/><path style="opacity:1" fill="#7f8596" d="M279.5 31.5q.255 1.983-1 3.5a61 61 0 0 0 11 .5q1 0 1 1h-13q-.57-3.297 2-5"/><path style="opacity:1" fill="#d79d61" d="M332.5 29.5a208 208 0 0 1 9 21.5q-.105 1.148-1 1.5l-8-22z"/><path style="opacity:1" fill="#4b70a7" d="M338.5 32.5q2.347 3.015 3 7-3.501-2.514-3-7"/><path style="opacity:1" fill="#b2b2b2" d="M21.5 34.5v7q3.84-.453 7 1-4.328-.46-8 1h-1l-12-2h13q-.453-3.84 1-7"/><path style="opacity:1" fill="#9d7450" d="M108.5 35.5q-.71 2.11-3 2 .71-2.11 3-2"/><path style="opacity:1" fill="#4b80c1" d="M158.5 31.5a84 84 0 0 0-1 16h4q.356 1.936-1 3-1.025-2.514-4-2-.249-8.016.5-16 .575-.835 1.5-1"/><path style="opacity:1" fill="#ecddbb" d="M164.5 29.5q1.494-.128 2.5 1 .749 8.985.5 18-2.519-.322-3 2-1.356-1.064-1-3h3a129 129 0 0 0-.5-16q-1.076-.816-1.5-2"/><path style="opacity:1" fill="#312d2e" d="M178.5 35.5h13v4h-13z"/><path style="opacity:1" fill="#c3dde4" d="M231.5 33.5h1v14h4q.356 1.936-1 3-1.025-2.514-4-2z"/><path style="opacity:1" fill="#e6cb90" d="M118.5 37.5q1.707 4.205.5 9-1.665 2.305-4.5 2a30 30 0 0 0 3.5-3q.746-3.97.5-8"/><path style="opacity:1" fill="#bf7c41" d="M252.5 26.5q-9.393 8.963-4 21-1.935-.837-2.5-3-1-6 0-12 2.109-4.364 6.5-6"/><path style="opacity:1" fill="#e5a85b" d="M273.5 33.5a55 55 0 0 0 1 12q-2.276-2.943-2-7 .01-2.804 1-5"/><path style="opacity:1" fill="#78b4e0" d="M294.5 31.5q2.718 3.32 1 7a52 52 0 0 1-1-7"/><path style="opacity:1" fill="#5a6e73" d="M55.5 39.5q-5.5 2-11 0 5.5-2 11 0"/><path style="opacity:1" fill="#2e3030" d="M20.5 31.5q1 0 1 1 1.488-.258 2 1l-2 1q-1.453 3.16-1 7h-13q-1.977-4.597 0-9.5a85 85 0 0 1 13-.5"/><path style="opacity:1" fill="#5d7177" d="M19.5 39.5q-5.5 2-11 0 5.55-1.887 11 0"/><path style="opacity:1" fill="#869fa8" d="M19.5 39.5q-5.45-1.887-11 0v-6q2.947.944 6 2 2.316-.434 4-2a9.86 9.86 0 0 1 1 6"/><path style="opacity:1" fill="#b67c4a" d="M105.5 37.5q-2 5.5 0 11-6-5.5 0-11"/><path style="opacity:1" fill="#5f80bb" d="M109.5 39.5q-2 3.5 0 7-2.17-.95-2-3.5-.17-2.55 2-3.5"/><path style="opacity:1" fill="#f5cb56" d="M21.5 43.5q5.67-1.067 9 3.5 6.282.264 12 1.5v11h-21z"/><path style="opacity:1" fill="#cb9a27" d="M32.5 44.5a25.9 25.9 0 0 1 10 1l-5 1q-3.21-.084-5-2"/><path style="opacity:1" fill="#76a7da" d="M267.5 42.5q1.767 2.757-1 5a20.7 20.7 0 0 1 1-5"/><path style="opacity:1" fill="#9ec6e9" d="M294.5 42.5q2.145 2.932-1 5l1-4z"/><path style="opacity:1" fill="#cea072" d="M274.5 45.5q2.5 1.5 4 4-3.5-.5-4-4"/><path style="opacity:1" fill="#b28359" d="M294.5 42.5v1l-6 4q1.461-4.494 6-5"/><path style="opacity:1" fill="#be8c5e" d="M144.5 44.5q-.081 3.198-3 4 .449-2.933 3-4"/><path style="opacity:1" fill="#b3835b" d="M203.5 19.5q1.49 14.228 1 29-3.422-.634-5 2-1.356-1.064-1-3h5z"/><path style="opacity:1" fill="#a47957" d="M248.5 47.5q2.856.357 4 3-2.856-.357-4-3"/><path style="opacity:1" fill="#bf8353" d="M133.5 28.5a197 197 0 0 1 1.5 20q1.076.816 1.5 2-3.876-.822-3-5z"/><path style="opacity:1" fill="#d5e1c4" d="M119.5 50.5h-3q2.315-3.085 3 0"/><path style="opacity:1" fill="#cf9f68" d="M340.5 52.5q.188 4.662-4 6a903 903 0 0 1 4-6"/><path style="opacity:1" fill="#bd9b42" d="M20.5 43.5h1v16h21v-11q1.475 5.697 1 12h-23z"/></svg>
