<svg width="1000" height="715" xmlns="http://www.w3.org/2000/svg" xmlns:xlink="http://www.w3.org/1999/xlink"><defs><g id="a"><path stroke-width="0" fill="#fff" d="M-4.95-14.15h9.9v28.4h-9.9z"/><path fill="#1b1b1b" stroke-width="null" d="M-.75-14.5h1.5v29h-1.5z"/></g><g id="b"><path fill="#fff" stroke-width="0" d="M-5.55-8.95h11.1v17.9h-11.1z"/><path d="M.3-6.276q-.532 0-.981.311-.448.312-.799.883-.35.57-.61 1.389c-.26.819-.303 1.155-.39 1.83q.675-.48 1.41-.779A4.1 4.1 0 0 1 .48-2.94q1.195 0 2.155.467.96.468 1.642 1.279.68.81 1.045 1.882.363 1.07.363 2.278c0 1.208-.13 1.566-.389 2.284q-.39 1.078-1.103 1.876c-.713.798-1.05.954-1.72 1.266q-1.006.467-2.24.467-1.414 0-2.518-.571A5.14 5.14 0 0 1-4.14 6.646q-.754-1.071-1.15-2.616T-5.685.526q0-2.285.383-4.037t1.142-2.94 1.902-1.798q1.141-.61 2.66-.61.987 0 1.837.311a4.6 4.6 0 0 1 1.519.922q.668.61 1.116 1.538.447.929.63 2.149H2.335Q2.066-6.277.3-6.276M.117-.241q-1.35 0-2.739 1.389.039 1.194.253 2.142.214.947.571 1.61.357.66.864 1.018.506.357 1.13.357.544 0 .98-.246.434-.247.74-.682c.305-.435.358-.627.466-1.012q.163-.578.163-1.24 0-.675-.17-1.279A3.6 3.6 0 0 0 1.89.752a2.5 2.5 0 0 0-.766-.727A1.94 1.94 0 0 0 .118-.241"/></g><g id="c"><path fill="#fff" stroke-width="0" d="M-5.55-8.95h11.1v17.9h-11.1z"/><path d="M6.19 5.052H3.98V8.96H.8V5.052h-6.99v-2.52l7.679-11.49H3.98V2.168h2.21zM.801 2.17v-5.524L-2.702 2.17z"/></g><g id="d"><path fill="#fff" stroke-width="0" d="M-5.55-8.95h11.1v17.9h-11.1z"/><path d="M-1.99-3.011q.975-.46 2.346-.461 1.08 0 2.075.395.994.395 1.76 1.166.764.771 1.211 1.91.448 1.14.448 2.63 0 1.317-.428 2.457c-.428 1.14-.687 1.418-1.206 1.976s-1.148.995-1.89 1.312q-1.114.474-2.47.474a6.4 6.4 0 0 1-2.083-.336 5 5 0 0 1-1.732-1.021q-.759-.685-1.259-1.713c-.5-1.028-.545-1.49-.632-2.412h3.188q.08.725.304 1.265.224.541.56.896.336.356.757.527.422.172.896.172.633 0 1.147-.264t.883-.731.573-1.087c.204-.62.204-.856.204-1.33q0-.87-.21-1.53a3.2 3.2 0 0 0-.587-1.1 2.5 2.5 0 0 0-.896-.672 2.8 2.8 0 0 0-1.153-.23q-1.463 0-2.649 1.33H-5.27l.764-9.46h9.593v2.899h-6.852z"/></g><g id="e"><path fill="#fff" stroke-width="0" d="M-5.55-8.95h11.1v17.9h-11.1z"/><path d="M5.88-6.864-.292 8.953h-3.527L2.313-5.968h-8.194v-2.985H5.881z"/></g><g id="f"><path fill="#fff" stroke-width="0" d="M-5.55-8.95h11.1v17.9h-11.1z"/><path d="M1.674 8.969h-3.22v-12.76q-1.428.516-3.954.516v-2.704q3.966 0 4.538-2.99h2.636z"/></g><g id="g"><path fill="#fff" stroke-width="0" d="M-5.55-8.95h11.1v17.9h-11.1z"/><path d="M5.876 8.92H-5.876q0-2.272.944-3.695.518-.758 1.382-1.662a23 23 0 0 1 2.14-1.94A40 40 0 0 0 .5-.013q.777-.717 1.25-1.35.471-.63.678-1.242c.207-.612.206-.847.206-1.317q0-1.116-.618-1.735-.62-.618-1.789-.618-.479 0-.917.193a2.2 2.2 0 0 0-.778.578 3.3 3.3 0 0 0-.565.95q-.226.567-.28 1.324H-5.53q.106-1.29.559-2.347c.453-1.057.702-1.303 1.203-1.795a5.3 5.3 0 0 1 1.775-1.143Q-.97-8.92.267-8.921q1.33 0 2.373.386 1.045.385 1.749 1.063.705.679 1.077 1.596t.372 1.994q0 .998-.266 1.835a5.9 5.9 0 0 1-.798 1.596q-.504.69-1.502 1.728Q2.274 2.314.825 3.524q-.426.359-1.09.964A9.5 9.5 0 0 0-1.57 5.984h7.445z"/></g><g id="h"><path fill="#fff" stroke-width="0" d="M-5.55-8.95h11.1v17.9h-11.1z"/><path d="M4.932-4.304q0 .457-.098.934a4.7 4.7 0 0 1-.294.927q-.195.451-.49.85a3.5 3.5 0 0 1-.686.699q.575.3 1.02.764.443.465.744 1.039.3.575.457 1.228.157.654.157 1.333 0 1.202-.444 2.208c-.444 1.006-.702 1.246-1.215 1.724q-.771.72-1.83 1.117c-1.059.397-1.463.399-2.273.399q-1.228 0-2.247-.392a5.3 5.3 0 0 1-1.77-1.104 5.25 5.25 0 0 1-1.195-1.725q-.445-1.012-.51-2.254h3.2q0 .588.164 1.11.163.524.483.915.32.393.79.621.471.229 1.085.229.588 0 1.072-.21.483-.209.823-.58.339-.374.523-.89a3.4 3.4 0 0 0 .183-1.13q0-.626-.19-1.15a2.4 2.4 0 0 0-.562-.894A2.6 2.6 0 0 0 .915.882 3.5 3.5 0 0 0-.346.673h-1.307v-2.6h.993q1.228 0 1.836-.647.607-.646.607-1.757 0-.98-.51-1.483-.508-.503-1.45-.503-1.946 0-2.22 2.508H-5.56q.144-1.254.601-2.208a5.2 5.2 0 0 1 1.163-1.6 4.7 4.7 0 0 1 1.62-.974 5.8 5.8 0 0 1 1.96-.327q1.176 0 2.124.34a4.8 4.8 0 0 1 1.62.954q.673.615 1.038 1.457.366.844.366 1.863"/></g><g id="i"><path fill="#fff" stroke-width="0" d="M-5.55-8.95h11.1v17.9h-11.1z"/><path fill="#1b1b1b" stroke-width="null" d="M-5.5-1.6h11v3.2h-11z"/></g><g id="j"><path fill="#fff" stroke-width="0" d="M-5.55-8.95h11.1v17.9h-11.1z"/><path d="M-.006-8.92q1.424 0 2.49.588 1.065.588 1.777 1.739c.712 1.15.832 1.71 1.072 2.829q.36 1.68.359 3.862 0 4.34-1.431 6.58Q2.83 8.92-.006 8.92q-2.85 0-4.268-2.242-1.418-2.24-1.418-6.58 0-2.182.353-3.862t1.065-2.83c.712-1.15 1.067-1.346 1.778-1.738q1.065-.588 2.49-.588m0 15.24q.626 0 1.098-.327.47-.327.79-1.066.32-.738.484-1.921T2.53.098c0-1.725-.054-2.13-.163-2.94s-.27-1.473-.484-1.987q-.32-.77-.79-1.13t-1.098-.36q-.614 0-1.085.353-.47.353-.797 1.124t-.49 1.986Q-2.541-1.64-2.541.098q0 1.725.163 2.915t.49 1.92q.327.733.797 1.06t1.085.326"/></g><g id="k"><path stroke-width="0" fill="#fff" d="M-7.55-14.35h11.7v28.4h-11.7z"/><path fill="#1b1b1b" stroke-width="null" d="M-4.35-14.5h1v29h-1zm2.7 0h2.4v29h-2.4z"/></g><path fill="#1b1b1b" d="M-8.458-14.968c.13-.074.334-.018.408.149.037.074.037.13.037 1.428 0 .76 0 1.372.019 1.372 0 0 .167-.074.37-.148.427-.167.483-.186.594-.093.13.093.13.111.13.853 0 .63 0 .686-.037.742-.019.037-.056.074-.074.093-.037.018-.26.13-.52.222l-.463.204-.019 1.502c0 .816 0 1.502.019 1.502 0 0 .167-.074.37-.148.427-.167.483-.185.594-.093.13.093.13.112.13.853 0 .631 0 .687-.037.742-.019.037-.056.074-.074.093a5 5 0 0 1-.52.223l-.463.204-.019 1.557c0 1.41-.018 1.577-.037 1.632a.331.331 0 0 1-.575 0c-.018-.055-.037-.204-.037-1.502v-1.428l-.797.315-.78.316v1.502c0 1.595 0 1.558-.092 1.65-.037.056-.167.112-.222.112-.075 0-.204-.056-.242-.112-.092-.092-.092-.055-.092-1.502 0-.76 0-1.372-.019-1.372 0 0-.167.074-.37.148-.427.167-.483.186-.594.093-.13-.093-.13-.111-.13-.853 0-.63 0-.686.037-.742.019-.037.056-.074.074-.093.037-.018.26-.13.52-.222l.482-.204v-1.502c0-.816 0-1.503-.019-1.503 0 0-.167.075-.37.149-.427.167-.483.185-.594.093C-12-8.83-12-8.848-12-9.59c0-.63 0-.686.037-.741a.4.4 0 0 1 .074-.093c.037-.019.26-.13.52-.223l.482-.204v-1.557c0-1.41.018-1.577.037-1.632a.331.331 0 0 1 .575 0c.018.055.037.204.037 1.502l.018 1.428.78-.316.778-.315v-1.502c0-1.41 0-1.502.037-1.576s.074-.112.167-.149m-.204 6.584v-1.502l-.797.315-.78.315v3.023l.056-.018c.038-.019.39-.167.798-.316l.723-.296z" stroke-width="33" id="l"/><path fill="none" stroke-width="1.2" stroke-linejoin="null" stroke-linecap="round" d="M.75.75s-8.394.57-12.219 8.884" stroke="#1b1b1b" id="o"/><path fill="none" stroke-width="1.2" stroke-linejoin="null" stroke-linecap="round" d="M.75.75s7.642.57 11.124 8.884" stroke="#1b1b1b" id="p"/><circle fill="#1b1b1b" cx="-.7" cy="13" id="m" r="1.9"/><circle fill="#1b1b1b" cx="-.7" cy="-14" id="n" r="1.9"/></defs><title>Layer 1</title><path stroke="null" fill="#fff" d="M0 0h1000v715H0z"/><use xlink:href="#a" y="51" x="83" xmlns:xlink="http://www.w3.org/1999/xlink"/><use xlink:href="#b" y="51" x="102.664" xmlns:xlink="http://www.w3.org/1999/xlink"/><use xlink:href="#c" y="51" x="119.52" xmlns:xlink="http://www.w3.org/1999/xlink"/><use xlink:href="#d" y="51" x="136.375" xmlns:xlink="http://www.w3.org/1999/xlink"/><use xlink:href="#b" y="51" x="163.063" xmlns:xlink="http://www.w3.org/1999/xlink"/><use xlink:href="#b" y="51" x="177.109" xmlns:xlink="http://www.w3.org/1999/xlink"/><use xlink:href="#e" y="51" x="191.155" xmlns:xlink="http://www.w3.org/1999/xlink"/><use xlink:href="#f" y="51" x="215.033" xmlns:xlink="http://www.w3.org/1999/xlink"/><use xlink:href="#g" y="51" x="229.079" xmlns:xlink="http://www.w3.org/1999/xlink"/><use xlink:href="#f" y="51" x="245.934" xmlns:xlink="http://www.w3.org/1999/xlink"/><use xlink:href="#e" y="51" x="259.98" xmlns:xlink="http://www.w3.org/1999/xlink"/><use xlink:href="#f" y="51" x="289.477" xmlns:xlink="http://www.w3.org/1999/xlink"/><use xlink:href="#b" y="51" x="303.523" xmlns:xlink="http://www.w3.org/1999/xlink"/><use xlink:href="#d" y="51" x="320.378" xmlns:xlink="http://www.w3.org/1999/xlink"/><use xlink:href="#b" y="51" x="334.424" xmlns:xlink="http://www.w3.org/1999/xlink"/><use xlink:href="#a" y="51" x="359.707" xmlns:xlink="http://www.w3.org/1999/xlink"/><use xlink:href="#c" y="51" x="382.181" xmlns:xlink="http://www.w3.org/1999/xlink"/><use xlink:href="#b" y="51" x="396.227" xmlns:xlink="http://www.w3.org/1999/xlink"/><use xlink:href="#d" y="51" x="413.082" xmlns:xlink="http://www.w3.org/1999/xlink"/><use xlink:href="#c" y="51" x="442.579" xmlns:xlink="http://www.w3.org/1999/xlink"/><use xlink:href="#h" y="51" x="456.625" xmlns:xlink="http://www.w3.org/1999/xlink"/><use xlink:href="#g" y="51" x="470.671" xmlns:xlink="http://www.w3.org/1999/xlink"/><use xlink:href="#h" y="51" x="494.549" xmlns:xlink="http://www.w3.org/1999/xlink"/><use xlink:href="#g" y="51" x="508.595" xmlns:xlink="http://www.w3.org/1999/xlink"/><use xlink:href="#f" y="51" x="525.451" xmlns:xlink="http://www.w3.org/1999/xlink"/><use xlink:href="#g" y="51" x="539.497" xmlns:xlink="http://www.w3.org/1999/xlink"/><use xlink:href="#h" y="51" x="563.375" xmlns:xlink="http://www.w3.org/1999/xlink"/><use xlink:href="#c" y="51" x="580.23" xmlns:xlink="http://www.w3.org/1999/xlink"/><use xlink:href="#d" y="51" x="597.086" xmlns:xlink="http://www.w3.org/1999/xlink"/><use xlink:href="#b" y="51" x="611.132" xmlns:xlink="http://www.w3.org/1999/xlink"/><use xlink:href="#a" y="51" x="636.414" xmlns:xlink="http://www.w3.org/1999/xlink"/><use xlink:href="#c" y="51" x="658.888" xmlns:xlink="http://www.w3.org/1999/xlink"/><use xlink:href="#b" y="51" x="672.934" xmlns:xlink="http://www.w3.org/1999/xlink"/><use xlink:href="#d" y="51" x="689.789" xmlns:xlink="http://www.w3.org/1999/xlink"/><use xlink:href="#b" y="51" x="716.477" xmlns:xlink="http://www.w3.org/1999/xlink"/><use xlink:href="#d" y="51" x="733.332" xmlns:xlink="http://www.w3.org/1999/xlink"/><use xlink:href="#b" y="51" x="747.378" xmlns:xlink="http://www.w3.org/1999/xlink"/><use xlink:href="#d" y="51" x="774.066" xmlns:xlink="http://www.w3.org/1999/xlink"/><use xlink:href="#c" y="51" x="790.921" xmlns:xlink="http://www.w3.org/1999/xlink"/><use xlink:href="#d" y="51" x="807.776" xmlns:xlink="http://www.w3.org/1999/xlink"/><use xlink:href="#b" y="51" x="821.822" xmlns:xlink="http://www.w3.org/1999/xlink"/><use xlink:href="#e" y="51" x="851.319" xmlns:xlink="http://www.w3.org/1999/xlink"/><use xlink:href="#b" y="51" x="865.365" xmlns:xlink="http://www.w3.org/1999/xlink"/><use xlink:href="#c" y="51" x="882.22" xmlns:xlink="http://www.w3.org/1999/xlink"/><use xlink:href="#d" y="51" x="899.076" xmlns:xlink="http://www.w3.org/1999/xlink"/><use xlink:href="#a" y="51" x="923" xmlns:xlink="http://www.w3.org/1999/xlink"/><use xlink:href="#a" y="129" x="83" xmlns:xlink="http://www.w3.org/1999/xlink"/><use xlink:href="#b" y="129" x="105.516" xmlns:xlink="http://www.w3.org/1999/xlink"/><use xlink:href="#i" y="129" x="129.64" xmlns:xlink="http://www.w3.org/1999/xlink"/><use xlink:href="#i" y="129" x="153.765" xmlns:xlink="http://www.w3.org/1999/xlink"/><use xlink:href="#i" y="129" x="177.889" xmlns:xlink="http://www.w3.org/1999/xlink"/><use xlink:href="#a" y="129" x="200.405" xmlns:xlink="http://www.w3.org/1999/xlink"/><use xlink:href="#j" y="129" x="222.921" xmlns:xlink="http://www.w3.org/1999/xlink"/><use xlink:href="#j" y="129" x="247.045" xmlns:xlink="http://www.w3.org/1999/xlink"/><use xlink:href="#j" y="129" x="271.169" xmlns:xlink="http://www.w3.org/1999/xlink"/><use xlink:href="#j" y="129" x="295.294" xmlns:xlink="http://www.w3.org/1999/xlink"/><use xlink:href="#a" y="129" x="317.81" xmlns:xlink="http://www.w3.org/1999/xlink"/><use xlink:href="#j" y="129" x="340.326" xmlns:xlink="http://www.w3.org/1999/xlink"/><use xlink:href="#j" y="129" x="364.45" xmlns:xlink="http://www.w3.org/1999/xlink"/><use xlink:href="#j" y="129" x="388.574" xmlns:xlink="http://www.w3.org/1999/xlink"/><use xlink:href="#j" y="129" x="412.699" xmlns:xlink="http://www.w3.org/1999/xlink"/><use xlink:href="#a" y="129" x="435.215" xmlns:xlink="http://www.w3.org/1999/xlink"/><use xlink:href="#j" y="129" x="457.731" xmlns:xlink="http://www.w3.org/1999/xlink"/><use xlink:href="#j" y="129" x="481.855" xmlns:xlink="http://www.w3.org/1999/xlink"/><use xlink:href="#j" y="129" x="505.979" xmlns:xlink="http://www.w3.org/1999/xlink"/><use xlink:href="#j" y="129" x="530.104" xmlns:xlink="http://www.w3.org/1999/xlink"/><use xlink:href="#a" y="129" x="552.62" xmlns:xlink="http://www.w3.org/1999/xlink"/><use xlink:href="#f" y="129" x="578.352" xmlns:xlink="http://www.w3.org/1999/xlink"/><use xlink:href="#f" y="129" x="608.91" xmlns:xlink="http://www.w3.org/1999/xlink"/><use xlink:href="#g" y="129" x="624.992" xmlns:xlink="http://www.w3.org/1999/xlink"/><use xlink:href="#h" y="129" x="652.333" xmlns:xlink="http://www.w3.org/1999/xlink"/><use xlink:href="#c" y="129" x="671.633" xmlns:xlink="http://www.w3.org/1999/xlink"/><use xlink:href="#h" y="129" x="698.974" xmlns:xlink="http://www.w3.org/1999/xlink"/><use xlink:href="#g" y="129" x="715.057" xmlns:xlink="http://www.w3.org/1999/xlink"/><use xlink:href="#a" y="129" x="737.572" xmlns:xlink="http://www.w3.org/1999/xlink"/><use xlink:href="#f" y="129" x="763.305" xmlns:xlink="http://www.w3.org/1999/xlink"/><use xlink:href="#b" y="129" x="790.646" xmlns:xlink="http://www.w3.org/1999/xlink"/><use xlink:href="#e" y="129" x="806.729" xmlns:xlink="http://www.w3.org/1999/xlink"/><use xlink:href="#f" y="129" x="834.07" xmlns:xlink="http://www.w3.org/1999/xlink"/><use xlink:href="#g" y="129" x="850.153" xmlns:xlink="http://www.w3.org/1999/xlink"/><use xlink:href="#f" y="129" x="880.71" xmlns:xlink="http://www.w3.org/1999/xlink"/><use xlink:href="#e" y="129" x="896.793" xmlns:xlink="http://www.w3.org/1999/xlink"/><use xlink:href="#a" y="129" x="923" xmlns:xlink="http://www.w3.org/1999/xlink"/><use xlink:href="#a" y="207" x="83" xmlns:xlink="http://www.w3.org/1999/xlink"/><use xlink:href="#b" y="207" x="110.297" xmlns:xlink="http://www.w3.org/1999/xlink"/><use xlink:href="#c" y="207" x="143.443" xmlns:xlink="http://www.w3.org/1999/xlink"/><use xlink:href="#d" y="207" x="166.84" xmlns:xlink="http://www.w3.org/1999/xlink"/><use xlink:href="#b" y="207" x="186.338" xmlns:xlink="http://www.w3.org/1999/xlink"/><use xlink:href="#h" y="207" x="205.836" xmlns:xlink="http://www.w3.org/1999/xlink"/><use xlink:href="#h" y="207" x="242.881" xmlns:xlink="http://www.w3.org/1999/xlink"/><use xlink:href="#b" y="207" x="262.379" xmlns:xlink="http://www.w3.org/1999/xlink"/><use xlink:href="#d" y="207" x="285.776" xmlns:xlink="http://www.w3.org/1999/xlink"/><use xlink:href="#b" y="207" x="305.274" xmlns:xlink="http://www.w3.org/1999/xlink"/><use xlink:href="#h" y="207" x="338.42" xmlns:xlink="http://www.w3.org/1999/xlink"/><use xlink:href="#b" y="207" x="357.918" xmlns:xlink="http://www.w3.org/1999/xlink"/><use xlink:href="#d" y="207" x="381.315" xmlns:xlink="http://www.w3.org/1999/xlink"/><use xlink:href="#b" y="207" x="400.813" xmlns:xlink="http://www.w3.org/1999/xlink"/><use xlink:href="#a" y="207" x="432.009" xmlns:xlink="http://www.w3.org/1999/xlink"/><use xlink:href="#c" y="207" x="463.205" xmlns:xlink="http://www.w3.org/1999/xlink"/><use xlink:href="#g" y="207" x="496.352" xmlns:xlink="http://www.w3.org/1999/xlink"/><use xlink:href="#c" y="207" x="519.749" xmlns:xlink="http://www.w3.org/1999/xlink"/><use xlink:href="#b" y="207" x="539.247" xmlns:xlink="http://www.w3.org/1999/xlink"/><use xlink:href="#e" y="207" x="558.744" xmlns:xlink="http://www.w3.org/1999/xlink"/><use xlink:href="#b" y="207" x="591.89" xmlns:xlink="http://www.w3.org/1999/xlink"/><use xlink:href="#d" y="207" x="625.037" xmlns:xlink="http://www.w3.org/1999/xlink"/><use xlink:href="#b" y="207" x="644.534" xmlns:xlink="http://www.w3.org/1999/xlink"/><use xlink:href="#e" y="207" x="664.032" xmlns:xlink="http://www.w3.org/1999/xlink"/><use xlink:href="#a" y="207" x="695.228" xmlns:xlink="http://www.w3.org/1999/xlink"/><use xlink:href="#f" y="207" x="726.425" xmlns:xlink="http://www.w3.org/1999/xlink"/><use xlink:href="#f" y="207" x="763.47" xmlns:xlink="http://www.w3.org/1999/xlink"/><use xlink:href="#g" y="207" x="782.968" xmlns:xlink="http://www.w3.org/1999/xlink"/><use xlink:href="#h" y="207" x="816.114" xmlns:xlink="http://www.w3.org/1999/xlink"/><use xlink:href="#c" y="207" x="839.511" xmlns:xlink="http://www.w3.org/1999/xlink"/><use xlink:href="#h" y="207" x="872.658" xmlns:xlink="http://www.w3.org/1999/xlink"/><use xlink:href="#g" y="207" x="892.155" xmlns:xlink="http://www.w3.org/1999/xlink"/><use xlink:href="#a" y="207" x="923" xmlns:xlink="http://www.w3.org/1999/xlink"/><use xlink:href="#a" y="285" x="83" xmlns:xlink="http://www.w3.org/1999/xlink"/><use xlink:href="#f" y="285" x="112.322" xmlns:xlink="http://www.w3.org/1999/xlink"/><use xlink:href="#b" y="285" x="143.476" xmlns:xlink="http://www.w3.org/1999/xlink"/><use xlink:href="#e" y="285" x="161.803" xmlns:xlink="http://www.w3.org/1999/xlink"/><use xlink:href="#f" y="285" x="192.957" xmlns:xlink="http://www.w3.org/1999/xlink"/><use xlink:href="#g" y="285" x="211.283" xmlns:xlink="http://www.w3.org/1999/xlink"/><use xlink:href="#f" y="285" x="246.103" xmlns:xlink="http://www.w3.org/1999/xlink"/><use xlink:href="#e" y="285" x="264.429" xmlns:xlink="http://www.w3.org/1999/xlink"/><use xlink:href="#a" y="285" x="293.751" xmlns:xlink="http://www.w3.org/1999/xlink"/><use xlink:href="#b" y="285" x="319.408" xmlns:xlink="http://www.w3.org/1999/xlink"/><use xlink:href="#c" y="285" x="350.562" xmlns:xlink="http://www.w3.org/1999/xlink"/><use xlink:href="#d" y="285" x="372.554" xmlns:xlink="http://www.w3.org/1999/xlink"/><use xlink:href="#b" y="285" x="390.88" xmlns:xlink="http://www.w3.org/1999/xlink"/><use xlink:href="#h" y="285" x="409.206" xmlns:xlink="http://www.w3.org/1999/xlink"/><use xlink:href="#h" y="285" x="444.026" xmlns:xlink="http://www.w3.org/1999/xlink"/><use xlink:href="#b" y="285" x="462.352" xmlns:xlink="http://www.w3.org/1999/xlink"/><use xlink:href="#d" y="285" x="484.343" xmlns:xlink="http://www.w3.org/1999/xlink"/><use xlink:href="#b" y="285" x="502.67" xmlns:xlink="http://www.w3.org/1999/xlink"/><use xlink:href="#h" y="285" x="533.824" xmlns:xlink="http://www.w3.org/1999/xlink"/><use xlink:href="#b" y="285" x="552.15" xmlns:xlink="http://www.w3.org/1999/xlink"/><use xlink:href="#d" y="285" x="574.142" xmlns:xlink="http://www.w3.org/1999/xlink"/><use xlink:href="#b" y="285" x="592.468" xmlns:xlink="http://www.w3.org/1999/xlink"/><use xlink:href="#a" y="285" x="621.79" xmlns:xlink="http://www.w3.org/1999/xlink"/><use xlink:href="#c" y="285" x="651.112" xmlns:xlink="http://www.w3.org/1999/xlink"/><use xlink:href="#b" y="285" x="669.438" xmlns:xlink="http://www.w3.org/1999/xlink"/><use xlink:href="#d" y="285" x="691.429" xmlns:xlink="http://www.w3.org/1999/xlink"/><use xlink:href="#b" y="285" x="709.755" xmlns:xlink="http://www.w3.org/1999/xlink"/><use xlink:href="#c" y="285" x="748.24" xmlns:xlink="http://www.w3.org/1999/xlink"/><use xlink:href="#b" y="285" x="766.567" xmlns:xlink="http://www.w3.org/1999/xlink"/><use xlink:href="#d" y="285" x="788.558" xmlns:xlink="http://www.w3.org/1999/xlink"/><use xlink:href="#b" y="285" x="806.884" xmlns:xlink="http://www.w3.org/1999/xlink"/><use xlink:href="#d" y="285" x="845.369" xmlns:xlink="http://www.w3.org/1999/xlink"/><use xlink:href="#b" y="285" x="876.524" xmlns:xlink="http://www.w3.org/1999/xlink"/><use xlink:href="#e" y="285" x="894.85" xmlns:xlink="http://www.w3.org/1999/xlink"/><use xlink:href="#a" y="285" x="923" xmlns:xlink="http://www.w3.org/1999/xlink"/><use xlink:href="#a" y="363" x="83" xmlns:xlink="http://www.w3.org/1999/xlink"/><use xlink:href="#f" y="363" x="116.005" xmlns:xlink="http://www.w3.org/1999/xlink"/><use xlink:href="#f" y="363" x="151.072" xmlns:xlink="http://www.w3.org/1999/xlink"/><use xlink:href="#g" y="363" x="171.7" xmlns:xlink="http://www.w3.org/1999/xlink"/><use xlink:href="#h" y="363" x="202.643" xmlns:xlink="http://www.w3.org/1999/xlink"/><use xlink:href="#c" y="363" x="227.396" xmlns:xlink="http://www.w3.org/1999/xlink"/><use xlink:href="#h" y="363" x="262.464" xmlns:xlink="http://www.w3.org/1999/xlink"/><use xlink:href="#g" y="363" x="283.092" xmlns:xlink="http://www.w3.org/1999/xlink"/><use xlink:href="#a" y="363" x="311.971" xmlns:xlink="http://www.w3.org/1999/xlink"/><use xlink:href="#f" y="363" x="344.976" xmlns:xlink="http://www.w3.org/1999/xlink"/><use xlink:href="#b" y="363" x="380.043" xmlns:xlink="http://www.w3.org/1999/xlink"/><use xlink:href="#e" y="363" x="400.671" xmlns:xlink="http://www.w3.org/1999/xlink"/><use xlink:href="#f" y="363" x="435.739" xmlns:xlink="http://www.w3.org/1999/xlink"/><use xlink:href="#g" y="363" x="456.367" xmlns:xlink="http://www.w3.org/1999/xlink"/><use xlink:href="#f" y="363" x="495.56" xmlns:xlink="http://www.w3.org/1999/xlink"/><use xlink:href="#e" y="363" x="516.188" xmlns:xlink="http://www.w3.org/1999/xlink"/><use xlink:href="#a" y="363" x="549.193" xmlns:xlink="http://www.w3.org/1999/xlink"/><use xlink:href="#b" y="363" x="578.072" xmlns:xlink="http://www.w3.org/1999/xlink"/><use xlink:href="#c" y="363" x="613.14" xmlns:xlink="http://www.w3.org/1999/xlink"/><use xlink:href="#d" y="363" x="637.894" xmlns:xlink="http://www.w3.org/1999/xlink"/><use xlink:href="#b" y="363" x="658.522" xmlns:xlink="http://www.w3.org/1999/xlink"/><use xlink:href="#h" y="363" x="679.15" xmlns:xlink="http://www.w3.org/1999/xlink"/><use xlink:href="#h" y="363" x="718.343" xmlns:xlink="http://www.w3.org/1999/xlink"/><use xlink:href="#b" y="363" x="738.971" xmlns:xlink="http://www.w3.org/1999/xlink"/><use xlink:href="#d" y="363" x="763.725" xmlns:xlink="http://www.w3.org/1999/xlink"/><use xlink:href="#b" y="363" x="784.353" xmlns:xlink="http://www.w3.org/1999/xlink"/><use xlink:href="#h" y="363" x="819.42" xmlns:xlink="http://www.w3.org/1999/xlink"/><use xlink:href="#b" y="363" x="840.048" xmlns:xlink="http://www.w3.org/1999/xlink"/><use xlink:href="#d" y="363" x="864.802" xmlns:xlink="http://www.w3.org/1999/xlink"/><use xlink:href="#b" y="363" x="885.43" xmlns:xlink="http://www.w3.org/1999/xlink"/><use xlink:href="#a" y="363" x="923" xmlns:xlink="http://www.w3.org/1999/xlink"/><use xlink:href="#a" y="441" x="83" xmlns:xlink="http://www.w3.org/1999/xlink"/><use xlink:href="#c" y="441" x="124.281" xmlns:xlink="http://www.w3.org/1999/xlink"/><use xlink:href="#b" y="441" x="150.082" xmlns:xlink="http://www.w3.org/1999/xlink"/><use xlink:href="#d" y="441" x="181.042" xmlns:xlink="http://www.w3.org/1999/xlink"/><use xlink:href="#b" y="441" x="206.843" xmlns:xlink="http://www.w3.org/1999/xlink"/><use xlink:href="#c" y="441" x="261.024" xmlns:xlink="http://www.w3.org/1999/xlink"/><use xlink:href="#b" y="441" x="286.825" xmlns:xlink="http://www.w3.org/1999/xlink"/><use xlink:href="#d" y="441" x="317.786" xmlns:xlink="http://www.w3.org/1999/xlink"/><use xlink:href="#b" y="441" x="343.586" xmlns:xlink="http://www.w3.org/1999/xlink"/><use xlink:href="#d" y="441" x="397.767" xmlns:xlink="http://www.w3.org/1999/xlink"/><use xlink:href="#b" y="441" x="441.628" xmlns:xlink="http://www.w3.org/1999/xlink"/><use xlink:href="#e" y="441" x="480.329" xmlns:xlink="http://www.w3.org/1999/xlink"/><use xlink:href="#a" y="441" x="516.45" xmlns:xlink="http://www.w3.org/1999/xlink"/><use xlink:href="#f" y="441" x="557.731" xmlns:xlink="http://www.w3.org/1999/xlink"/><use xlink:href="#i" y="441" x="601.592" xmlns:xlink="http://www.w3.org/1999/xlink"/><use xlink:href="#e" y="441" x="640.293" xmlns:xlink="http://www.w3.org/1999/xlink"/><use xlink:href="#i" y="441" x="678.994" xmlns:xlink="http://www.w3.org/1999/xlink"/><use xlink:href="#a" y="441" x="715.115" xmlns:xlink="http://www.w3.org/1999/xlink"/><use xlink:href="#b" y="441" x="751.236" xmlns:xlink="http://www.w3.org/1999/xlink"/><use xlink:href="#i" y="441" x="789.937" xmlns:xlink="http://www.w3.org/1999/xlink"/><use xlink:href="#d" y="441" x="833.798" xmlns:xlink="http://www.w3.org/1999/xlink"/><use xlink:href="#i" y="441" x="877.659" xmlns:xlink="http://www.w3.org/1999/xlink"/><use xlink:href="#a" y="441" x="923" xmlns:xlink="http://www.w3.org/1999/xlink"/><use xlink:href="#a" y="519" x="83" xmlns:xlink="http://www.w3.org/1999/xlink"/><use xlink:href="#c" y="519" x="139" xmlns:xlink="http://www.w3.org/1999/xlink"/><use xlink:href="#i" y="519" x="198.5" xmlns:xlink="http://www.w3.org/1999/xlink"/><use xlink:href="#h" y="519" x="251" xmlns:xlink="http://www.w3.org/1999/xlink"/><use xlink:href="#i" y="519" x="303.5" xmlns:xlink="http://www.w3.org/1999/xlink"/><use xlink:href="#a" y="519" x="352.5" xmlns:xlink="http://www.w3.org/1999/xlink"/><use xlink:href="#c" y="519" x="408.5" xmlns:xlink="http://www.w3.org/1999/xlink"/><use xlink:href="#i" y="519" x="468" xmlns:xlink="http://www.w3.org/1999/xlink"/><use xlink:href="#d" y="519" x="527.5" xmlns:xlink="http://www.w3.org/1999/xlink"/><use xlink:href="#i" y="519" x="587" xmlns:xlink="http://www.w3.org/1999/xlink"/><use xlink:href="#a" y="519" x="636" xmlns:xlink="http://www.w3.org/1999/xlink"/><use xlink:href="#f" y="519" x="692" xmlns:xlink="http://www.w3.org/1999/xlink"/><use xlink:href="#i" y="519" x="751.5" xmlns:xlink="http://www.w3.org/1999/xlink"/><use xlink:href="#e" y="519" x="804" xmlns:xlink="http://www.w3.org/1999/xlink"/><use xlink:href="#i" y="519" x="856.5" xmlns:xlink="http://www.w3.org/1999/xlink"/><use xlink:href="#a" y="519" x="923" xmlns:xlink="http://www.w3.org/1999/xlink"/><use xlink:href="#a" y="597" x="83" xmlns:xlink="http://www.w3.org/1999/xlink"/><use xlink:href="#b" y="597" x="132" xmlns:xlink="http://www.w3.org/1999/xlink"/><use xlink:href="#i" y="597" x="184.5" xmlns:xlink="http://www.w3.org/1999/xlink"/><use xlink:href="#d" y="597" x="244" xmlns:xlink="http://www.w3.org/1999/xlink"/><use xlink:href="#i" y="597" x="303.5" xmlns:xlink="http://www.w3.org/1999/xlink"/><use xlink:href="#a" y="597" x="352.5" xmlns:xlink="http://www.w3.org/1999/xlink"/><use xlink:href="#c" y="597" x="408.5" xmlns:xlink="http://www.w3.org/1999/xlink"/><use xlink:href="#i" y="597" x="468" xmlns:xlink="http://www.w3.org/1999/xlink"/><use xlink:href="#h" y="597" x="520.5" xmlns:xlink="http://www.w3.org/1999/xlink"/><use xlink:href="#i" y="597" x="573" xmlns:xlink="http://www.w3.org/1999/xlink"/><use xlink:href="#a" y="597" x="622" xmlns:xlink="http://www.w3.org/1999/xlink"/><use xlink:href="#c" y="597" x="678" xmlns:xlink="http://www.w3.org/1999/xlink"/><use xlink:href="#i" y="597" x="737.5" xmlns:xlink="http://www.w3.org/1999/xlink"/><use xlink:href="#d" y="597" x="797" xmlns:xlink="http://www.w3.org/1999/xlink"/><use xlink:href="#i" y="597" x="856.5" xmlns:xlink="http://www.w3.org/1999/xlink"/><use xlink:href="#a" y="597" x="923" xmlns:xlink="http://www.w3.org/1999/xlink"/><use xlink:href="#a" y="675" x="83" xmlns:xlink="http://www.w3.org/1999/xlink"/><use xlink:href="#d" y="675" x="141.897" xmlns:xlink="http://www.w3.org/1999/xlink"/><use xlink:href="#i" y="675" x="204.474" xmlns:xlink="http://www.w3.org/1999/xlink"/><use xlink:href="#i" y="675" x="259.69" xmlns:xlink="http://www.w3.org/1999/xlink"/><use xlink:href="#i" y="675" x="314.905" xmlns:xlink="http://www.w3.org/1999/xlink"/><use xlink:href="#a" y="675" x="366.44" xmlns:xlink="http://www.w3.org/1999/xlink"/><use xlink:href="#b" y="675" x="417.974" xmlns:xlink="http://www.w3.org/1999/xlink"/><use xlink:href="#i" y="675" x="473.19" xmlns:xlink="http://www.w3.org/1999/xlink"/><use xlink:href="#i" y="675" x="528.405" xmlns:xlink="http://www.w3.org/1999/xlink"/><use xlink:href="#i" y="675" x="583.621" xmlns:xlink="http://www.w3.org/1999/xlink"/><use xlink:href="#a" y="675" x="635.155" xmlns:xlink="http://www.w3.org/1999/xlink"/><use xlink:href="#b" y="675" x="686.69" xmlns:xlink="http://www.w3.org/1999/xlink"/><use xlink:href="#i" y="675" x="741.905" xmlns:xlink="http://www.w3.org/1999/xlink"/><use xlink:href="#i" y="675" x="797.121" xmlns:xlink="http://www.w3.org/1999/xlink"/><use xlink:href="#i" y="675" x="852.336" xmlns:xlink="http://www.w3.org/1999/xlink"/><use xlink:href="#k" y="675" x="923" xmlns:xlink="http://www.w3.org/1999/xlink"/><path stroke="#1b1b1b" stroke-width="2" data-type="jianshixian" d="M96.664 64h45.711m-28.855 3h28.855m14.688-3h40.092m-26.046 3h26.046m11.878-3h56.947m-56.947 3h56.947m17.497-3h56.947m-56.947 3h56.947m35.757-3h42.901m-28.855 3h28.855m17.497-3h40.092m-26.046 3h26.046m11.878-3h56.948m-56.948 3h56.948m11.878-3h59.757m-59.757 3h59.757m35.756-3h42.901m-28.855 3h28.855m14.688-3h42.901m-26.046 3h26.046m14.688-3h59.756m-59.756 3h59.756m17.497-3h59.757m-59.757 3h59.757M602.91 142h28.082m15.341 0h31.3m15.341 0h28.083m63.589 0h28.083m15.341 0h28.083m18.557 0h28.083m-765.35 78h74.393m-74.393 3h74.393m25.045-3h74.393m-74.393 3h74.393m21.146-3h74.393m-74.393 3h74.393m83.539-3h74.392m-74.392 3h74.392m54.293-3h50.995m-50.995 3h31.497m106.936-3h31.498m21.146 0h35.397m21.147 0h31.497m-760.679 78h30.327m19.154 0h30.326m22.82 0h30.326m74.133 0h70.644m-70.644 3h70.644m22.82-3h70.644m-70.644 3h70.644m19.154-3h70.644m-70.644 3h70.644m46.644-3h70.643m-70.643 3h70.643m26.485-3h70.644m-70.644 3h70.644m57.64-3h30.326m-755.778 78H177.7m18.943 0h36.753m23.068 0h32.628m84.951 0h32.628m23.068 0h32.628m27.193 0h32.628m84.952 0h78.01m-78.01 3h78.01m27.193-3h78.01m-78.01 3h78.01m23.067-3h78.01m-78.01 3h78.01m-773.149 75h94.562m-94.562 3h94.562m42.181-3h94.562m-94.562 3h94.562m42.181-3h12m70.562 0h12m65.402 0h12"/><use xlink:href="#l" y="51" x="119.52" xmlns:xlink="http://www.w3.org/1999/xlink"/><use xlink:href="#l" y="51" x="136.375" xmlns:xlink="http://www.w3.org/1999/xlink"/><use xlink:href="#m" y="60" x="177.109" xmlns:xlink="http://www.w3.org/1999/xlink"/><use xlink:href="#m" y="60" x="191.155" xmlns:xlink="http://www.w3.org/1999/xlink"/><use xlink:href="#l" y="51" x="215.033" xmlns:xlink="http://www.w3.org/1999/xlink"/><use xlink:href="#l" y="51" x="245.934" xmlns:xlink="http://www.w3.org/1999/xlink"/><use xlink:href="#m" y="60" x="259.98" xmlns:xlink="http://www.w3.org/1999/xlink"/><use xlink:href="#l" y="51" x="289.477" xmlns:xlink="http://www.w3.org/1999/xlink"/><use xlink:href="#l" y="51" x="320.378" xmlns:xlink="http://www.w3.org/1999/xlink"/><use xlink:href="#l" y="51" x="382.181" xmlns:xlink="http://www.w3.org/1999/xlink"/><use xlink:href="#l" y="51" x="413.082" xmlns:xlink="http://www.w3.org/1999/xlink"/><use xlink:href="#l" y="51" x="442.579" xmlns:xlink="http://www.w3.org/1999/xlink"/><use xlink:href="#l" y="51" x="525.451" xmlns:xlink="http://www.w3.org/1999/xlink"/><use xlink:href="#l" y="51" x="580.23" xmlns:xlink="http://www.w3.org/1999/xlink"/><use xlink:href="#l" y="51" x="597.086" xmlns:xlink="http://www.w3.org/1999/xlink"/><use xlink:href="#l" y="51" x="658.888" xmlns:xlink="http://www.w3.org/1999/xlink"/><use xlink:href="#l" y="51" x="689.789" xmlns:xlink="http://www.w3.org/1999/xlink"/><use xlink:href="#l" y="51" x="733.332" xmlns:xlink="http://www.w3.org/1999/xlink"/><use xlink:href="#l" y="51" x="774.066" xmlns:xlink="http://www.w3.org/1999/xlink"/><use xlink:href="#l" y="51" x="790.921" xmlns:xlink="http://www.w3.org/1999/xlink"/><use xlink:href="#l" y="51" x="807.776" xmlns:xlink="http://www.w3.org/1999/xlink"/><use xlink:href="#l" y="51" x="882.22" xmlns:xlink="http://www.w3.org/1999/xlink"/><use xlink:href="#l" y="51" x="899.076" xmlns:xlink="http://www.w3.org/1999/xlink"/><use xlink:href="#n" y="129" x="578.352" xmlns:xlink="http://www.w3.org/1999/xlink"/><use xlink:href="#l" y="129" x="578.352" xmlns:xlink="http://www.w3.org/1999/xlink"/><use xlink:href="#n" y="129" x="608.91" xmlns:xlink="http://www.w3.org/1999/xlink"/><use xlink:href="#l" y="129" x="608.91" xmlns:xlink="http://www.w3.org/1999/xlink"/><use xlink:href="#n" y="129" x="624.992" xmlns:xlink="http://www.w3.org/1999/xlink"/><use xlink:href="#n" y="129" x="652.333" xmlns:xlink="http://www.w3.org/1999/xlink"/><use xlink:href="#n" y="129" x="674.133" xmlns:xlink="http://www.w3.org/1999/xlink"/><use xlink:href="#l" y="129" x="671.633" xmlns:xlink="http://www.w3.org/1999/xlink"/><use xlink:href="#n" y="129" x="698.974" xmlns:xlink="http://www.w3.org/1999/xlink"/><use xlink:href="#n" y="129" x="715.057" xmlns:xlink="http://www.w3.org/1999/xlink"/><use xlink:href="#n" y="129" x="763.305" xmlns:xlink="http://www.w3.org/1999/xlink"/><use xlink:href="#l" y="129" x="763.305" xmlns:xlink="http://www.w3.org/1999/xlink"/><use xlink:href="#n" y="129" x="834.07" xmlns:xlink="http://www.w3.org/1999/xlink"/><use xlink:href="#l" y="129" x="834.07" xmlns:xlink="http://www.w3.org/1999/xlink"/><use xlink:href="#n" y="129" x="850.153" xmlns:xlink="http://www.w3.org/1999/xlink"/><use xlink:href="#n" y="129" x="880.71" xmlns:xlink="http://www.w3.org/1999/xlink"/><use xlink:href="#l" y="129" x="880.71" xmlns:xlink="http://www.w3.org/1999/xlink"/><use xlink:href="#l" y="207" x="143.443" xmlns:xlink="http://www.w3.org/1999/xlink"/><use xlink:href="#l" y="207" x="166.84" xmlns:xlink="http://www.w3.org/1999/xlink"/><use xlink:href="#l" y="207" x="285.776" xmlns:xlink="http://www.w3.org/1999/xlink"/><use xlink:href="#l" y="207" x="381.315" xmlns:xlink="http://www.w3.org/1999/xlink"/><use xlink:href="#l" y="207" x="463.205" xmlns:xlink="http://www.w3.org/1999/xlink"/><use xlink:href="#l" y="207" x="519.749" xmlns:xlink="http://www.w3.org/1999/xlink"/><use xlink:href="#l" y="207" x="625.037" xmlns:xlink="http://www.w3.org/1999/xlink"/><use xlink:href="#n" y="207" x="726.425" xmlns:xlink="http://www.w3.org/1999/xlink"/><use xlink:href="#l" y="207" x="726.425" xmlns:xlink="http://www.w3.org/1999/xlink"/><use xlink:href="#n" y="207" x="763.47" xmlns:xlink="http://www.w3.org/1999/xlink"/><use xlink:href="#l" y="207" x="763.47" xmlns:xlink="http://www.w3.org/1999/xlink"/><use xlink:href="#n" y="207" x="782.968" xmlns:xlink="http://www.w3.org/1999/xlink"/><use xlink:href="#n" y="207" x="816.114" xmlns:xlink="http://www.w3.org/1999/xlink"/><use xlink:href="#n" y="207" x="842.011" xmlns:xlink="http://www.w3.org/1999/xlink"/><use xlink:href="#l" y="207" x="839.511" xmlns:xlink="http://www.w3.org/1999/xlink"/><use xlink:href="#n" y="207" x="872.658" xmlns:xlink="http://www.w3.org/1999/xlink"/><use xlink:href="#n" y="207" x="892.155" xmlns:xlink="http://www.w3.org/1999/xlink"/><use xlink:href="#n" y="285" x="112.322" xmlns:xlink="http://www.w3.org/1999/xlink"/><use xlink:href="#l" y="285" x="112.322" xmlns:xlink="http://www.w3.org/1999/xlink"/><use xlink:href="#n" y="285" x="192.957" xmlns:xlink="http://www.w3.org/1999/xlink"/><use xlink:href="#l" y="285" x="192.957" xmlns:xlink="http://www.w3.org/1999/xlink"/><use xlink:href="#n" y="285" x="211.283" xmlns:xlink="http://www.w3.org/1999/xlink"/><use xlink:href="#n" y="285" x="246.103" xmlns:xlink="http://www.w3.org/1999/xlink"/><use xlink:href="#l" y="285" x="246.103" xmlns:xlink="http://www.w3.org/1999/xlink"/><use xlink:href="#l" y="285" x="350.562" xmlns:xlink="http://www.w3.org/1999/xlink"/><use xlink:href="#l" y="285" x="372.554" xmlns:xlink="http://www.w3.org/1999/xlink"/><use xlink:href="#l" y="285" x="484.343" xmlns:xlink="http://www.w3.org/1999/xlink"/><use xlink:href="#l" y="285" x="574.142" xmlns:xlink="http://www.w3.org/1999/xlink"/><use xlink:href="#l" y="285" x="651.112" xmlns:xlink="http://www.w3.org/1999/xlink"/><use xlink:href="#l" y="285" x="691.429" xmlns:xlink="http://www.w3.org/1999/xlink"/><use xlink:href="#l" y="285" x="748.24" xmlns:xlink="http://www.w3.org/1999/xlink"/><use xlink:href="#l" y="285" x="788.558" xmlns:xlink="http://www.w3.org/1999/xlink"/><use xlink:href="#l" y="285" x="845.369" xmlns:xlink="http://www.w3.org/1999/xlink"/><use xlink:href="#n" y="363" x="116.005" xmlns:xlink="http://www.w3.org/1999/xlink"/><use xlink:href="#l" y="363" x="116.005" xmlns:xlink="http://www.w3.org/1999/xlink"/><use xlink:href="#n" y="363" x="151.072" xmlns:xlink="http://www.w3.org/1999/xlink"/><use xlink:href="#n" y="363" x="171.7" xmlns:xlink="http://www.w3.org/1999/xlink"/><use xlink:href="#n" y="363" x="202.643" xmlns:xlink="http://www.w3.org/1999/xlink"/><use xlink:href="#n" y="363" x="229.896" xmlns:xlink="http://www.w3.org/1999/xlink"/><use xlink:href="#l" y="363" x="227.396" xmlns:xlink="http://www.w3.org/1999/xlink"/><use xlink:href="#n" y="363" x="262.464" xmlns:xlink="http://www.w3.org/1999/xlink"/><use xlink:href="#n" y="363" x="283.092" xmlns:xlink="http://www.w3.org/1999/xlink"/><use xlink:href="#n" y="363" x="344.976" xmlns:xlink="http://www.w3.org/1999/xlink"/><use xlink:href="#l" y="363" x="344.976" xmlns:xlink="http://www.w3.org/1999/xlink"/><use xlink:href="#n" y="363" x="435.739" xmlns:xlink="http://www.w3.org/1999/xlink"/><use xlink:href="#l" y="363" x="435.739" xmlns:xlink="http://www.w3.org/1999/xlink"/><use xlink:href="#n" y="363" x="456.367" xmlns:xlink="http://www.w3.org/1999/xlink"/><use xlink:href="#n" y="363" x="495.56" xmlns:xlink="http://www.w3.org/1999/xlink"/><use xlink:href="#l" y="363" x="495.56" xmlns:xlink="http://www.w3.org/1999/xlink"/><use xlink:href="#l" y="363" x="613.14" xmlns:xlink="http://www.w3.org/1999/xlink"/><use xlink:href="#l" y="363" x="637.894" xmlns:xlink="http://www.w3.org/1999/xlink"/><use xlink:href="#l" y="363" x="763.725" xmlns:xlink="http://www.w3.org/1999/xlink"/><use xlink:href="#l" y="363" x="864.802" xmlns:xlink="http://www.w3.org/1999/xlink"/><use xlink:href="#l" y="441" x="124.281" xmlns:xlink="http://www.w3.org/1999/xlink"/><use xlink:href="#l" y="441" x="181.042" xmlns:xlink="http://www.w3.org/1999/xlink"/><use xlink:href="#l" y="441" x="261.024" xmlns:xlink="http://www.w3.org/1999/xlink"/><use xlink:href="#l" y="441" x="317.786" xmlns:xlink="http://www.w3.org/1999/xlink"/><use xlink:href="#l" y="441" x="397.767" xmlns:xlink="http://www.w3.org/1999/xlink"/><use xlink:href="#n" y="441" x="557.731" xmlns:xlink="http://www.w3.org/1999/xlink"/><use xlink:href="#l" y="441" x="557.731" xmlns:xlink="http://www.w3.org/1999/xlink"/><use xlink:href="#l" y="441" x="833.798" xmlns:xlink="http://www.w3.org/1999/xlink"/><use xlink:href="#l" y="519" x="139" xmlns:xlink="http://www.w3.org/1999/xlink"/><use xlink:href="#l" y="519" x="408.5" xmlns:xlink="http://www.w3.org/1999/xlink"/><use xlink:href="#l" y="519" x="527.5" xmlns:xlink="http://www.w3.org/1999/xlink"/><use xlink:href="#n" y="519" x="692" xmlns:xlink="http://www.w3.org/1999/xlink"/><use xlink:href="#l" y="519" x="692" xmlns:xlink="http://www.w3.org/1999/xlink"/><use xlink:href="#l" y="597" x="244" xmlns:xlink="http://www.w3.org/1999/xlink"/><use xlink:href="#l" y="597" x="408.5" xmlns:xlink="http://www.w3.org/1999/xlink"/><use xlink:href="#l" y="597" x="678" xmlns:xlink="http://www.w3.org/1999/xlink"/><use xlink:href="#l" y="597" x="797" xmlns:xlink="http://www.w3.org/1999/xlink"/><use xlink:href="#l" y="675" x="141.897" xmlns:xlink="http://www.w3.org/1999/xlink"/><path stroke="#1b1b1b" stroke-width=".5" d="M206.836 191c10.113-10 24.932-10 35.045 0m0 0c-10.113-9-24.932-9-35.045 0m203.37 78c9.446-10 23.374-10 32.82 0m0 0c-9.446-9-23.374-9-32.82 0m269.944 78c10.758-10 26.435-10 37.193 0m0 0c-10.758-9-26.435-9-37.193 0"/><use xlink:href="#o" y="571.05" x="809" xmlns:xlink="http://www.w3.org/1999/xlink"/><use xlink:href="#p" y="649.05" x="129.897" xmlns:xlink="http://www.w3.org/1999/xlink"/><path fill="none" stroke="#1b1b1b" stroke-width="1.2" d="M809.8 571.8H924"/><use xlink:href="#o" y="649.05" x="429.974" xmlns:xlink="http://www.w3.org/1999/xlink"/><use xlink:href="#p" y="649.05" x="674.69" xmlns:xlink="http://www.w3.org/1999/xlink"/><path fill="none" stroke="#1b1b1b" stroke-width="1.2" d="M430.774 649.8H675.69"/><path fill="none" stroke="#1b1b1b" d="m-7-25 165.072-5M-7-35l165.072 5"/><g/></svg>
